<svg version="1.2" xmlns="http://www.w3.org/2000/svg" viewBox="0 0 51 41" width="51" height="41"><style>.a{fill:none;stroke:#fff;stroke-miterlimit:10;stroke-width:3}</style><path class="a" d="m14 20.3c0-2.2-1.8-4-4.1-4-2.2 0-4 1.8-4 4 0 2.3 1.8 4.1 4 4.1 2.3 0 4.1-1.8 4.1-4.1z"/><path class="a" d="m43.6 20.3c0-2.2-1.9-4-4.1-4-2.3 0-4.1 1.8-4.1 4 0 2.3 1.8 4.1 4.1 4.1 2.2 0 4.1-1.8 4.1-4.1z"/><path class="a" d="m5.9 39h39.6"/><path class="a" d="m19.8 24.2h11.7"/><path class="a" d="m22.7 24.2v14.8"/><path class="a" d="m28.5 24.2v14.8"/><path class="a" d="m5.9 20.3h-2c0 0-1.9 0-1.9-2.5v-4.9c0 0-0.2-1.7 3.1-2.2l8.9-2.2 6.5-5.9c0 0 1-1 3.6-1h11.3c0 0 2.4 0.2 3.7 2l4.3 5 4.7 1.5c0 0 1.2 0.6 1.2 2.3v6.4c0 0-0.3 1.5-2.5 1.5h-3.2"/><path class="a" d="m14 20.3h21.4"/></svg>