<svg version="1.2" xmlns="http://www.w3.org/2000/svg" viewBox="0 0 20 19" width="20" height="19"><style>.a{fill:#fff}</style><path fill-rule="evenodd" class="a" d="m19.6 9.4c0 5.1-4.4 9.3-9.7 9.3-1.9 0-3.7-0.6-5.2-1.5l-3.8 1.2 1.2-3.5c-1.1-1.6-1.8-3.4-1.8-5.5 0-5.1 4.3-9.2 9.6-9.2 5.3 0 9.7 4.1 9.7 9.2zm-3.9 2.6c-0.2-0.3-2.4-1.3-2.7-1.2-0.4 0-0.8 1.2-1.5 1.3-0.6 0.1-1.8-0.7-2.4-1.2-0.6-0.4-2-2-1.9-2.3 0-0.3 1-1 1-1.4 0-0.4-0.9-2.8-1.7-2.8-0.8 0-2.3 0.8-2.2 2.6 0.1 1.7 1.6 4.1 3.9 5.7 2.3 1.7 4.4 2.3 6.1 1.7 1.6-0.6 1.6-2.1 1.4-2.4z"/></svg>